<svg width="12" height="12" viewBox="0 0 12 12" fill="none" xmlns="http://www.w3.org/2000/svg">
<path fill-rule="evenodd" clip-rule="evenodd" d="M3.6564 11.5247V8.74436L1.41425 9.86497C2.01748 10.5799 2.78271 11.1536 3.6564 11.5247Z" fill="#00247D"/>
<path fill-rule="evenodd" clip-rule="evenodd" d="M8.34363 11.5247C9.21686 11.1536 9.98255 10.5799 10.5853 9.86497L8.34363 8.74436V11.5247Z" fill="#00247D"/>
<path fill-rule="evenodd" clip-rule="evenodd" d="M1.41406 2.13498L3.65622 3.25605V0.475283C2.78299 0.84636 2.01729 1.42005 1.41406 2.13498Z" fill="#00247D"/>
<path fill-rule="evenodd" clip-rule="evenodd" d="M8.34363 0.47543V3.25574L10.5853 2.13512C9.98255 1.41974 9.21686 0.846506 8.34363 0.47543Z" fill="#00247D"/>
<path fill-rule="evenodd" clip-rule="evenodd" d="M3.65642 3.25592L1.41427 2.13484C1.31134 2.25623 1.21581 2.38361 1.1235 2.51331L3.40904 3.65654H0.475499C0.401653 3.82961 0.337037 4.00684 0.279806 4.18823C0.237806 4.32069 0.205037 4.45731 0.172729 4.59392H1.09119H4.59381V4.24869V3.72484V0.172383C4.27119 0.249921 3.95642 0.347767 3.65642 0.475614V3.25592Z" fill="white"/>
<path fill-rule="evenodd" clip-rule="evenodd" d="M11.8273 4.59392C11.7945 4.45731 11.7617 4.32069 11.7202 4.18823C11.663 4.00731 11.5979 3.82961 11.5245 3.65654H8.5905L10.8765 2.51331C10.7837 2.38361 10.6882 2.25669 10.5857 2.13484L8.34357 3.25592V0.475614C8.04357 0.347767 7.7288 0.249921 7.40619 0.172383V3.72484V4.24869V4.59392H10.9088H11.8273Z" fill="white"/>
<path fill-rule="evenodd" clip-rule="evenodd" d="M0.172546 7.40593C0.205316 7.54254 0.238085 7.67916 0.279623 7.81208C0.336854 7.99254 0.401931 8.17024 0.475316 8.34331H3.40932L1.12332 9.48654C1.21608 9.61624 1.31162 9.74316 1.41408 9.86501L3.65624 8.74393V11.5247C3.95624 11.6516 4.27101 11.7495 4.59362 11.8275V8.27547V7.75116V7.40593H1.09147H0.172546Z" fill="white"/>
<path fill-rule="evenodd" clip-rule="evenodd" d="M7.40619 7.40593V7.75116V8.27547V11.8275C7.7288 11.7495 8.04357 11.6516 8.34357 11.5247V8.74393L10.5857 9.86501C10.6882 9.74316 10.7837 9.61624 10.877 9.48654L8.5905 8.34331H11.5245C11.5979 8.17024 11.663 7.99254 11.7202 7.81162C11.7622 7.67916 11.7945 7.54254 11.8273 7.40593H10.9088H7.40619Z" fill="white"/>
<path fill-rule="evenodd" clip-rule="evenodd" d="M10.8767 2.51335L8.5907 3.65658H11.5242C11.3516 3.2495 11.131 2.86873 10.8767 2.51335Z" fill="#CF142B"/>
<path fill-rule="evenodd" clip-rule="evenodd" d="M10.8767 9.48648C11.131 9.1311 11.3516 8.75033 11.5242 8.34325H8.5907L10.8767 9.48648Z" fill="#CF142B"/>
<path fill-rule="evenodd" clip-rule="evenodd" d="M1.12334 9.48648L3.40934 8.34325H0.475342C0.648419 8.75033 0.869034 9.1311 1.12334 9.48648Z" fill="#CF142B"/>
<path fill-rule="evenodd" clip-rule="evenodd" d="M1.12334 2.51335C0.869034 2.86873 0.648419 3.2495 0.475342 3.65658H3.40934L1.12334 2.51335Z" fill="#CF142B"/>
<path fill-rule="evenodd" clip-rule="evenodd" d="M11.8422 4.65092C11.8375 4.63154 11.832 4.61308 11.8274 4.59369H10.9089H7.40631V4.24846V3.72462V0.172615C6.954 0.0641539 6.48508 0 6 0C5.51492 0 5.04554 0.0641539 4.59369 0.172615V3.72462V4.24846V4.59369H1.09154H0.172615C0.168 4.61308 0.162 4.63154 0.157846 4.65092C0.0576923 5.08523 0 5.53569 0 6C0 6.46431 0.0576923 6.91477 0.157846 7.34908C0.162 7.368 0.168 7.38692 0.172615 7.40585H1.09154H4.59369V7.75108V8.27538V11.8274C5.04554 11.9363 5.51492 12 6 12C6.48508 12 6.954 11.9363 7.40631 11.8274V8.27538V7.75108V7.40585H10.9089H11.8274C11.832 7.38692 11.8375 7.368 11.8422 7.34908C11.9423 6.91477 12 6.46431 12 6C12 5.53569 11.9423 5.08523 11.8422 4.65092Z" fill="#CF142B"/>
</svg>
