<svg width="24" height="24" viewBox="0 0 24 24" fill="none" xmlns="http://www.w3.org/2000/svg">
<mask id="mask0_19144_43012" style="mask-type:alpha" maskUnits="userSpaceOnUse" x="4" y="0" width="16" height="24">
<path d="M7.12499 0C8.40839 0 9.44999 1.008 9.44999 2.25V21.75C9.44999 22.992 8.40839 24 7.12499 24C5.84159 24 4.79999 22.992 4.79999 21.75V2.25C4.79999 1.008 5.84159 0 7.12499 0ZM17.355 0C18.6384 0 19.68 1.008 19.68 2.25V21.75C19.68 22.992 18.6384 24 17.355 24C16.0716 24 15.03 22.992 15.03 21.75V2.25C15.03 1.008 16.0716 0 17.355 0Z" fill="black"/>
</mask>
<g mask="url(#mask0_19144_43012)">
<path d="M7.12499 0C8.40839 0 9.44999 1.008 9.44999 2.25V21.75C9.44999 22.992 8.40839 24 7.12499 24C5.84159 24 4.79999 22.992 4.79999 21.75V2.25C4.79999 1.008 5.84159 0 7.12499 0ZM17.355 0C18.6384 0 19.68 1.008 19.68 2.25V21.75C19.68 22.992 18.6384 24 17.355 24C16.0716 24 15.03 22.992 15.03 21.75V2.25C15.03 1.008 16.0716 0 17.355 0Z" fill="black"/>
<path d="M24 0H0V24H24V0Z" fill="black"/>
</g>
</svg>
