<svg width="24" height="24" viewBox="0 0 24 24" fill="none" xmlns="http://www.w3.org/2000/svg">
<g clip-path="url(#clip0_19144_43011)">
<path d="M3.5 1.8394C3.5 1.49924 3.59877 1.15908 3.7716 0.86932C3.94444 0.579556 4.2037 0.340186 4.5 0.189005C4.80864 0.0378235 5.14198 -0.0251686 5.47531 2.82305e-05C5.80864 0.0252251 6.12963 0.151209 6.40123 0.365383L19.7716 10.6205C19.9938 10.7969 20.179 11.0111 20.3148 11.2756C20.4383 11.5276 20.5123 11.8174 20.5123 12.1071C20.5123 12.3969 20.4506 12.6866 20.3148 12.9386C20.1914 13.1906 20.0062 13.4174 19.7716 13.5937L6.40123 23.6725C6.12963 23.8614 5.82099 23.9748 5.48765 24C5.16667 24.0252 4.83333 23.9496 4.54938 23.7985C4.25309 23.6473 4.01852 23.4205 3.84568 23.1307C3.67284 22.8536 3.57407 22.526 3.57407 22.1859L3.5 1.8394Z" fill="black"/>
</g>
<defs>
<clipPath id="clip0_19144_43011">
<rect width="17" height="24" fill="white" transform="translate(3.5)"/>
</clipPath>
</defs>
</svg>
