<svg width="40" height="40" viewBox="0 0 40 40" fill="none" xmlns="http://www.w3.org/2000/svg">
<mask id="mask0_1_8" style="mask-type:alpha" maskUnits="userSpaceOnUse" x="5" y="0" width="30" height="40">
<path d="M11.0287 27.2251C11.0287 26.1518 11.9169 25.2815 13.0138 25.2815C14.1086 25.2815 14.9949 26.1518 14.9949 27.2251C14.9949 28.2983 14.1086 29.1686 13.0138 29.1686C11.9169 29.1686 11.0287 28.2983 11.0287 27.2251ZM9.00987 16.6976C7.80174 16.6976 9.70335 6.25599 10.5717 6.25599H29.2102C30.1541 6.25599 32.3637 16.6976 30.8813 16.6976H9.00987ZM26.947 29.1686C25.8521 29.1686 24.9639 28.2983 24.9639 27.2251C24.9639 26.1518 25.8521 25.2815 26.947 25.2815C28.0418 25.2815 28.9301 26.1518 28.9301 27.2251C28.9301 28.2983 28.0418 29.1686 26.947 29.1686ZM11.4341 34.8275L13.5582 32.5054C14.5935 32.7396 15.5473 32.7415 16.2427 32.7415H18.4265V32.7396L21.572 32.7415H23.7558C24.4512 32.7415 25.403 32.7396 26.4403 32.5054L28.5644 34.8275H11.4341ZM7.04666 39.618L9.0357 37.4442H30.9628L32.9518 39.618C33.4228 40.1273 34.1798 40.1273 34.6468 39.618C35.1177 39.1048 35.1177 38.2775 34.6468 37.7643L28.8804 31.4673C29.0155 31.3795 29.1387 31.2897 29.2341 31.198C30.3031 30.3531 31.2986 29.0476 32.0219 27.028C33.0373 24.1966 33.7546 21.6716 33.9533 18.5592C34.2255 14.7248 32.616 8.76151 31.553 5.98085L31.1834 5.00128C30.9509 4.3788 30.0806 3.04994 28.5267 1.46155C27.1914 0.0995183 25.9097 0 23.9604 0H16.0381C14.0868 0 12.8071 0.0995183 11.4718 1.46155C9.91795 3.04799 9.04564 4.3788 8.81713 5.00128L8.44356 5.98476C7.38049 8.76346 5.77296 14.7248 6.04519 18.5631C6.24191 21.6638 6.95923 24.1907 7.97462 27.028C8.69989 29.0496 9.69341 30.3531 10.7644 31.198C10.8658 31.2858 10.987 31.3756 11.1221 31.4614L5.35171 37.7643C4.88276 38.2775 4.88276 39.1048 5.35171 39.618C5.81867 40.1273 6.57971 40.1273 7.04666 39.618Z" fill="white"/>
</mask>
<g mask="url(#mask0_1_8)">
<path d="M11.0287 27.2251C11.0287 26.1518 11.9169 25.2815 13.0138 25.2815C14.1086 25.2815 14.9949 26.1518 14.9949 27.2251C14.9949 28.2983 14.1086 29.1686 13.0138 29.1686C11.9169 29.1686 11.0287 28.2983 11.0287 27.2251ZM9.00987 16.6976C7.80174 16.6976 9.70335 6.25599 10.5717 6.25599H29.2102C30.1541 6.25599 32.3637 16.6976 30.8813 16.6976H9.00987ZM26.947 29.1686C25.8521 29.1686 24.9639 28.2983 24.9639 27.2251C24.9639 26.1518 25.8521 25.2815 26.947 25.2815C28.0418 25.2815 28.9301 26.1518 28.9301 27.2251C28.9301 28.2983 28.0418 29.1686 26.947 29.1686ZM11.4341 34.8275L13.5582 32.5054C14.5935 32.7396 15.5473 32.7415 16.2427 32.7415H18.4265V32.7396L21.572 32.7415H23.7558C24.4512 32.7415 25.403 32.7396 26.4403 32.5054L28.5644 34.8275H11.4341ZM7.04666 39.618L9.0357 37.4442H30.9628L32.9518 39.618C33.4228 40.1273 34.1798 40.1273 34.6468 39.618C35.1177 39.1048 35.1177 38.2775 34.6468 37.7643L28.8804 31.4673C29.0155 31.3795 29.1387 31.2897 29.2341 31.198C30.3031 30.3531 31.2986 29.0476 32.0219 27.028C33.0373 24.1966 33.7546 21.6716 33.9533 18.5592C34.2255 14.7248 32.616 8.76151 31.553 5.98085L31.1834 5.00128C30.9509 4.3788 30.0806 3.04994 28.5267 1.46155C27.1914 0.0995183 25.9097 0 23.9604 0H16.0381C14.0868 0 12.8071 0.0995183 11.4718 1.46155C9.91795 3.04799 9.04564 4.3788 8.81713 5.00128L8.44356 5.98476C7.38049 8.76346 5.77296 14.7248 6.04519 18.5631C6.24191 21.6638 6.95923 24.1907 7.97462 27.028C8.69989 29.0496 9.69341 30.3531 10.7644 31.198C10.8658 31.2858 10.987 31.3756 11.1221 31.4614L5.35171 37.7643C4.88276 38.2775 4.88276 39.1048 5.35171 39.618C5.81867 40.1273 6.57971 40.1273 7.04666 39.618Z" fill="black"/>
</g>
</svg>
