<svg width="45" height="32" viewBox="0 0 45 32" fill="none" xmlns="http://www.w3.org/2000/svg">
<path d="M0 27.9076H0.959749L1.903 30.522H1.9135L2.87325 27.9076H3.77451L2.19992 31.8982H1.5266L0 27.9076Z" fill="#6E136E"/>
<path d="M4.77783 29.9028C4.77783 29.5831 4.82882 29.2947 4.93079 29.0345C5.03277 28.7759 5.17673 28.5549 5.35968 28.3715C5.54263 28.1897 5.76008 28.0486 6.01201 27.9514C6.26394 27.8543 6.53837 27.8057 6.83679 27.8057C7.13522 27.8057 7.40964 27.8543 7.66158 27.9514C7.91351 28.0486 8.13096 28.1897 8.31391 28.3715C8.49686 28.5533 8.64082 28.7743 8.7428 29.0345C8.84477 29.2931 8.89576 29.5831 8.89576 29.9028C8.89576 30.2226 8.84477 30.511 8.7428 30.7712C8.64082 31.0298 8.49686 31.2508 8.31391 31.4326C8.13096 31.6144 7.91351 31.7555 7.66158 31.8527C7.40964 31.9499 7.13522 31.9985 6.83679 31.9985C6.53837 31.9985 6.26394 31.9499 6.01201 31.8527C5.76008 31.7555 5.54263 31.6144 5.35968 31.4326C5.17673 31.2508 5.03277 31.0298 4.93079 30.7712C4.82882 30.5126 4.77783 30.2226 4.77783 29.9028ZM5.6521 29.9028C5.6521 30.0909 5.6806 30.2633 5.73608 30.4185C5.79157 30.5737 5.87105 30.7101 5.97602 30.8245C6.07949 30.9389 6.20546 31.0282 6.35092 31.0925C6.49638 31.1568 6.65984 31.1881 6.83829 31.1881C7.01675 31.1881 7.1802 31.1568 7.32567 31.0925C7.47113 31.0282 7.5956 30.9389 7.70057 30.8245C7.80404 30.7101 7.88502 30.5753 7.94051 30.4185C7.99599 30.2633 8.02448 30.0909 8.02448 29.9028C8.02448 29.7148 7.99599 29.5486 7.94051 29.3903C7.88502 29.232 7.80554 29.0956 7.70057 28.9812C7.5956 28.8668 7.47113 28.7775 7.32567 28.7132C7.1802 28.6489 7.01675 28.6176 6.83829 28.6176C6.65984 28.6176 6.49638 28.6489 6.35092 28.7132C6.20546 28.7775 6.08099 28.8668 5.97602 28.9812C5.87105 29.0956 5.79157 29.232 5.73608 29.3903C5.6806 29.5486 5.6521 29.7195 5.6521 29.9028Z" fill="#6E136E"/>
<path d="M11.2154 30.196L9.78027 27.9076H10.827L11.6353 29.4013L12.4931 27.9076H13.4903L12.0552 30.196V31.8982H11.2139V30.196H11.2154Z" fill="#6E136E"/>
<path d="M15.8376 27.9076H16.5334L18.1949 31.8982H17.2457L16.9173 31.0534H15.4342L15.1162 31.8982H14.188L15.8376 27.9076ZM16.1615 29.069L15.6981 30.3088H16.6308L16.1615 29.069Z" fill="#6E136E"/>
<path d="M22.8422 31.616C22.5947 31.7508 22.3353 31.8496 22.0654 31.9091C21.7955 31.9687 21.521 32 21.2406 32C20.9422 32 20.6678 31.9515 20.4158 31.8543C20.1639 31.7571 19.9464 31.616 19.7635 31.4342C19.5805 31.2524 19.4366 31.0314 19.3346 30.7728C19.2326 30.5141 19.1816 30.2242 19.1816 29.9044C19.1816 29.5847 19.2326 29.2963 19.3346 29.0361C19.4366 28.7775 19.5805 28.5565 19.7635 28.3731C19.9464 28.1913 20.1639 28.0502 20.4158 27.953C20.6678 27.8558 20.9422 27.8073 21.2406 27.8073C21.539 27.8073 21.8269 27.8464 22.0849 27.9232C22.3413 28 22.5678 28.1333 22.7612 28.3214L22.1674 28.9985C22.0519 28.8746 21.9229 28.7806 21.779 28.7163C21.635 28.6521 21.455 28.6207 21.2391 28.6207C21.0591 28.6207 20.8972 28.6521 20.7517 28.7163C20.6063 28.7806 20.4818 28.8699 20.3768 28.9844C20.2719 29.0988 20.1924 29.2352 20.1369 29.3935C20.0814 29.5518 20.0529 29.7226 20.0529 29.906C20.0529 30.0894 20.0814 30.2665 20.1369 30.4217C20.1924 30.5768 20.2719 30.7132 20.3768 30.8276C20.4803 30.942 20.6063 31.0314 20.7517 31.0957C20.8972 31.1599 21.0606 31.1913 21.2391 31.1913C21.4176 31.1913 21.581 31.1693 21.713 31.127C21.8464 31.0831 21.9514 31.0392 22.0309 30.9938V30.3449H21.3456V29.533H22.8392V31.6176L22.8422 31.616Z" fill="#6E136E"/>
<path d="M24.4229 27.9076H27.0172V28.7195H25.2641V29.464H26.9197V30.2759H25.2641V31.0878H27.1131V31.8998H24.4229V27.9092V27.9076Z" fill="#6E136E"/>
<path d="M31.8158 30.359C31.8158 30.5957 31.7813 30.8135 31.7138 31.0126C31.6448 31.2117 31.5444 31.3841 31.4094 31.5314C31.2744 31.6788 31.1065 31.7932 30.9055 31.8747C30.7046 31.9577 30.4721 31.9985 30.2097 31.9985C29.9473 31.9985 29.7103 31.9577 29.5094 31.8747C29.3084 31.7916 29.1405 31.6772 29.0055 31.5314C28.8705 31.3856 28.7686 31.2117 28.7011 31.0126C28.6321 30.8135 28.5991 30.5957 28.5991 30.359V27.9076H29.4404V30.3261C29.4404 30.4499 29.4599 30.5643 29.4974 30.6693C29.5349 30.7744 29.5874 30.8653 29.6563 30.9421C29.7253 31.0189 29.8063 31.08 29.9023 31.1223C29.9983 31.1646 30.1002 31.1866 30.2127 31.1866C30.3252 31.1866 30.4271 31.1646 30.5201 31.1223C30.6131 31.08 30.6941 31.0189 30.7631 30.9421C30.8305 30.8653 30.8845 30.7744 30.922 30.6693C30.9595 30.5643 30.979 30.4499 30.979 30.3261V27.9076H31.8203V30.359H31.8158Z" fill="#6E136E"/>
<path d="M33.4009 27.9076H34.878C35.0714 27.9076 35.2559 27.928 35.4314 27.9672C35.6053 28.0063 35.7583 28.0722 35.8902 28.1646C36.0222 28.2571 36.1257 28.3809 36.2036 28.5361C36.2801 28.6929 36.3191 28.8872 36.3191 29.1192C36.3191 29.4013 36.2486 29.6411 36.1092 29.8386C35.9682 30.0361 35.7643 30.1615 35.4943 30.2132L36.4646 31.8982H35.4568L34.6591 30.3026H34.2437V31.8982H33.4024V27.9076H33.4009ZM34.2422 29.5596H34.7385C34.8135 29.5596 34.8945 29.5565 34.9785 29.5518C35.0624 29.5455 35.1389 29.5298 35.2079 29.5016C35.2754 29.4734 35.3324 29.4295 35.3774 29.3684C35.4224 29.3088 35.4448 29.2242 35.4448 29.1145C35.4448 29.0126 35.4254 28.9327 35.3849 28.8715C35.3459 28.812 35.2949 28.765 35.2334 28.7336C35.1719 28.7023 35.1014 28.6803 35.0235 28.6693C34.944 28.6584 34.8675 28.6521 34.791 28.6521H34.2407V29.5596H34.2422Z" fill="#6E136E"/>
<path d="M39.5914 28.8825C39.5224 28.7916 39.4309 28.7258 39.314 28.6819C39.197 28.638 39.086 28.6176 38.9826 28.6176C38.9211 28.6176 38.8581 28.6254 38.7936 28.6395C38.7291 28.6552 38.6676 28.6787 38.6106 28.7101C38.5537 28.7414 38.5057 28.7837 38.4712 28.837C38.4352 28.8903 38.4172 28.953 38.4172 29.0283C38.4172 29.1489 38.4607 29.2399 38.5462 29.3041C38.6331 29.3684 38.7411 29.4232 38.8731 29.4671C39.005 29.511 39.146 29.558 39.296 29.6019C39.4474 29.6474 39.5884 29.7116 39.7189 29.7931C39.8508 29.8762 39.9588 29.9859 40.0458 30.1254C40.1327 30.2649 40.1747 30.4499 40.1747 30.6834C40.1747 30.917 40.1357 31.0988 40.0563 31.2634C39.9768 31.4295 39.8703 31.5659 39.7354 31.674C39.6004 31.7837 39.4444 31.8637 39.266 31.917C39.0875 31.9703 38.9001 31.9953 38.7021 31.9953C38.4547 31.9953 38.2237 31.9562 38.0123 31.8762C37.8009 31.7979 37.6029 31.6693 37.4185 31.4922L38.0168 30.8041C38.1038 30.9248 38.2117 31.0173 38.3437 31.0831C38.4757 31.1489 38.6106 31.1819 38.7516 31.1819C38.8191 31.1819 38.8896 31.174 38.9586 31.1568C39.029 31.1395 39.092 31.1145 39.1475 31.08C39.203 31.0455 39.248 31.0032 39.2825 30.9499C39.317 30.8966 39.3335 30.8355 39.3335 30.7634C39.3335 30.6427 39.29 30.5486 39.2015 30.4781C39.113 30.4076 39.0035 30.3496 38.8701 30.301C38.7366 30.2524 38.5927 30.2038 38.4382 30.1552C38.2837 30.1066 38.1398 30.0408 38.0063 29.9577C37.8728 29.8747 37.7634 29.7665 37.6749 29.6301C37.5864 29.4953 37.5429 29.3167 37.5429 29.0941C37.5429 28.8715 37.5834 28.6913 37.6644 28.5298C37.7454 28.3684 37.8533 28.2336 37.9883 28.1239C38.1233 28.0157 38.2792 27.9326 38.4547 27.8794C38.6301 27.8245 38.8131 27.7979 38.999 27.7979C39.215 27.7979 39.4234 27.8292 39.6244 27.8935C39.8253 27.9577 40.0068 28.0643 40.1687 28.2148L39.5914 28.8747V28.8825Z" fill="#6E136E"/>
<path d="M0.903652 0.0575038C0.415877 0.0814637 0.0986745 0.322659 0.0986745 0.835401V23.8161C0.0950601 23.9142 0.109963 24.012 0.142498 24.1038C0.175033 24.1956 0.224534 24.2795 0.288054 24.3504C0.351574 24.4213 0.427814 24.4779 0.512237 24.5168C0.59666 24.5556 0.68754 24.5759 0.779465 24.5765H39.1925C39.5366 24.5765 39.8134 24.5429 39.975 24.0557C39.975 24.0557 43.8652 11.0503 43.9356 10.8171C44.0852 10.3235 43.9864 10.0759 43.5944 9.80918C31.0873 1.24432 12.3843 0 3.88117 0C2.65874 0 1.65477 0.02396 0.903652 0.0575038Z" fill="url(#paint0_linear_4298_8824)"/>
<path d="M8.84725 14.7401C7.43779 14.0133 6.4787 13.6331 6.70912 12.9015C6.98293 12.0358 8.40137 11.7083 9.68665 11.7387C10.2391 11.7539 10.7884 11.8326 11.325 11.9735L11.7904 10.4081C11.1494 10.273 10.4985 10.1992 9.84525 10.1877C7.26872 10.1238 4.93907 10.8825 4.34356 12.4894C3.63285 14.3934 5.6438 15.4653 7.38692 16.347C8.77394 17.0482 9.8662 17.7127 9.48166 18.5832C9.18241 19.2589 8.20237 19.58 6.77645 19.5416C5.39388 19.486 4.03713 19.1249 2.79196 18.481L2.07227 20.1486C2.97001 20.5879 4.80141 21.1901 6.37097 21.23C9.31707 21.2987 11.2263 20.5112 11.9894 18.7941C12.8916 16.7767 10.6502 15.6697 8.84725 14.7401Z" fill="white"/>
<path d="M12.8453 17.5993C12.8512 17.616 12.8623 17.6299 12.8767 17.6389C12.8912 17.648 12.908 17.6514 12.9246 17.6488C12.94 17.6517 12.9559 17.6482 12.9689 17.639C12.982 17.6298 12.9913 17.6156 12.9949 17.5993L14.4298 12.8504C15.8766 15.0595 17.3115 17.9619 18.0806 21.0415H20.4417L21.6072 17.1488C21.6192 17.1105 21.6461 17.1009 21.6836 17.1009C21.721 17.1009 21.7524 17.1137 21.7554 17.1488C22.1115 19.5912 24.3873 21.2332 27.6117 21.2332C29.7064 21.2332 31.5812 20.6502 32.0495 20.3802L33.2705 16.2719H37.9701L38.446 14.6746H33.7493L34.5572 11.9783H40.1547L40.6394 10.3267H32.7827L30.1164 19.2318C29.4619 19.3917 28.7918 19.4674 28.1204 19.457C26.5448 19.457 25.2775 19.0592 24.5698 18.1711C24.0356 17.5003 23.8217 16.6393 23.9534 15.6761C24.2691 13.3823 26.3623 11.9352 29.1618 11.9352C29.7429 11.9336 30.3236 11.9709 30.9004 12.047L31.4525 10.3171C30.694 10.2054 29.929 10.152 29.1633 10.1573C26.681 10.1573 24.5249 11.071 23.1259 12.6763C23.1109 12.6928 23.0926 12.7057 23.0725 12.7139C23.0523 12.7222 23.0308 12.7257 23.0092 12.7242C22.9658 12.7242 22.9374 12.7242 22.9494 12.6763L23.6511 10.3315H21.5998L19.3554 17.8389C18.6432 15.6266 17.1754 12.7099 15.3814 10.3315H13.1864L11.5405 15.7959C12.3694 16.4476 12.6298 16.9252 12.8453 17.5993Z" fill="white"/>
<defs>
<linearGradient id="paint0_linear_4298_8824" x1="0.0986745" y1="12.285" x2="43.9431" y2="12.285" gradientUnits="userSpaceOnUse">
<stop stop-color="#7A346E"/>
<stop offset="0.25" stop-color="#A0327B"/>
<stop offset="0.81" stop-color="#D23732"/>
<stop offset="1" stop-color="#D23732"/>
</linearGradient>
</defs>
</svg>
